<?xml version="1.0" encoding="utf-8"?>
<!-- Generator: Adobe Illustrator 24.1.1, SVG Export Plug-In . SVG Version: 6.00 Build 0)  -->
<svg version="1.1" id="Capa_1" xmlns="http://www.w3.org/2000/svg" xmlns:xlink="http://www.w3.org/1999/xlink" x="0px" y="0px"
	 width="45.4px" height="61.3px" viewBox="0 0 45.4 61.3" style="enable-background:new 0 0 45.4 61.3;" xml:space="preserve">
<style type="text/css">
	.st0{fill:#FFFFFF;stroke:#FFFFFF;stroke-width:0.3322;stroke-miterlimit:10;}
	.st1{fill:#00FFFF;}
	.st2{fill:#FF4FC6;}
</style>
<g id="Background">
</g>
<path class="st0" d="M10,30.2L10,30.2c-1.4,0-2.6-1.2-2.6-2.6l0,0c0-1.4,1.2-2.6,2.6-2.6l0,0c1.4,0,2.6,1.2,2.6,2.6l0,0
	C12.6,29,11.4,30.2,10,30.2z"/>
<g>
	<path class="st0" d="M18.6,30.2L18.6,30.2c-1.4,0-2.6-1.2-2.6-2.6l0,0c0-1.4,1.2-2.6,2.6-2.6l0,0c1.4,0,2.6,1.2,2.6,2.6l0,0
		C21.2,29,20.1,30.2,18.6,30.2z"/>
</g>
<g>
	<path class="st0" d="M27.3,30.2L27.3,30.2c-1.4,0-2.6-1.2-2.6-2.6l0,0c0-1.4,1.2-2.6,2.6-2.6l0,0c1.4,0,2.6,1.2,2.6,2.6l0,0
		C29.9,29,28.7,30.2,27.3,30.2z"/>
</g>
<g>
	<path class="st0" d="M36,30.2L36,30.2c-1.4,0-2.6-1.2-2.6-2.6l0,0c0-1.4,1.2-2.6,2.6-2.6l0,0c1.4,0,2.6,1.2,2.6,2.6l0,0
		C38.6,29,37.4,30.2,36,30.2z"/>
</g>
<g>
	<path class="st0" d="M10,38.7L10,38.7c-1.4,0-2.6-1.2-2.6-2.6l0,0c0-1.4,1.2-2.6,2.6-2.6l0,0c1.4,0,2.6,1.2,2.6,2.6l0,0
		C12.6,37.5,11.4,38.7,10,38.7z"/>
</g>
<g>
	<path class="st0" d="M18.6,38.7L18.6,38.7c-1.4,0-2.6-1.2-2.6-2.6l0,0c0-1.4,1.2-2.6,2.6-2.6l0,0c1.4,0,2.6,1.2,2.6,2.6l0,0
		C21.2,37.5,20.1,38.7,18.6,38.7z"/>
</g>
<g>
	<path class="st0" d="M27.3,38.7L27.3,38.7c-1.4,0-2.6-1.2-2.6-2.6l0,0c0-1.4,1.2-2.6,2.6-2.6l0,0c1.4,0,2.6,1.2,2.6,2.6l0,0
		C29.9,37.5,28.7,38.7,27.3,38.7z"/>
</g>
<g>
	<path class="st0" d="M10,47.2L10,47.2c-1.4,0-2.6-1.2-2.6-2.6l0,0c0-1.4,1.2-2.6,2.6-2.6l0,0c1.4,0,2.6,1.2,2.6,2.6l0,0
		C12.6,46.1,11.4,47.3,10,47.2z"/>
</g>
<g>
	<path class="st0" d="M18.6,47.3L18.6,47.3c-1.4,0-2.6-1.2-2.6-2.6l0,0c0-1.4,1.2-2.6,2.6-2.6l0,0c1.4,0,2.6,1.2,2.6,2.6l0,0
		C21.2,46.1,20.1,47.3,18.6,47.3z"/>
</g>
<g>
	<path class="st0" d="M27.3,47.3L27.3,47.3c-1.4,0-2.6-1.2-2.6-2.6l0,0c0-1.4,1.2-2.6,2.6-2.6l0,0c1.4,0,2.6,1.2,2.6,2.6l0,0
		C29.9,46.1,28.7,47.3,27.3,47.3z"/>
</g>
<g>
	<path class="st0" d="M10,54.6L10,54.6c-1.4,0-2.6-1.2-2.6-2.6l0,0c0-1.4,1.2-2.6,2.6-2.6l0,0c1.4,0,2.6,1.2,2.6,2.6l0,0
		C12.6,53.4,11.4,54.6,10,54.6z"/>
</g>
<g>
	<path class="st0" d="M18.6,54.6L18.6,54.6c-1.4,0-2.6-1.2-2.6-2.6l0,0c0-1.4,1.2-2.6,2.6-2.6l0,0c1.4,0,2.6,1.2,2.6,2.6l0,0
		C21.2,53.4,20.1,54.6,18.6,54.6z"/>
</g>
<g>
	<path class="st0" d="M27.3,54.6L27.3,54.6c-1.4,0-2.6-1.2-2.6-2.6l0,0c0-1.4,1.2-2.6,2.6-2.6l0,0c1.4,0,2.6,1.2,2.6,2.6l0,0
		C29.9,53.4,28.7,54.6,27.3,54.6z"/>
</g>
<g>
	<path class="st0" d="M36,38.7L36,38.7c-1.4,0-2.6-1.2-2.6-2.6l0,0c0-1.4,1.2-2.6,2.6-2.6l0,0c1.4,0,2.6,1.2,2.6,2.6l0,0
		C38.6,37.5,37.4,38.7,36,38.7z"/>
</g>
<path class="st0" d="M37.6,54.7l-3.7,0c-0.6,0-1.1-0.5-1.1-1.1l0-9.8c0-0.6,0.5-1.1,1.1-1.1l3.7,0c0.6,0,1.1,0.5,1.1,1.1l0,9.8
	C38.7,54.2,38.2,54.7,37.6,54.7z"/>
<path class="st1" d="M40.7,61.3H4.7c-2.6,0-4.7-2.1-4.7-4.7v-52C0,2.1,2.1,0,4.7,0h36.1c2.6,0,4.7,2.1,4.7,4.7v52
	C45.4,59.2,43.3,61.3,40.7,61.3z M4.7,1.3c-1.8,0-3.3,1.5-3.3,3.3v52c0,1.8,1.5,3.3,3.3,3.3h36.1c1.8,0,3.3-1.5,3.3-3.3v-52
	c0-1.8-1.5-3.3-3.3-3.3H4.7z"/>
<path class="st2" d="M35.3,21.4H10.1c-2.5,0-4.5-2-4.5-4.6v-4.6c0-2.5,2-4.6,4.5-4.6h25.1c2.5,0,4.5,2,4.5,4.6v4.6
	C39.8,19.3,37.8,21.4,35.3,21.4z M10.1,9c-1.8,0-3.2,1.4-3.2,3.2v4.6c0,1.8,1.4,3.2,3.2,3.2h25.1c1.8,0,3.2-1.4,3.2-3.2v-4.6
	c0-1.8-1.4-3.2-3.2-3.2"/>
<g>
	<path class="st1" d="M11.2,12.6v1.6l-0.5,0.5l-0.2-0.2v-2.2L11.2,12.6z M11.2,15.3v1.8L11,17.8c-0.2-0.1-0.4-0.2-0.4-0.4V15
		l0.2-0.2L11.2,15.3z M13.5,12.4h-2.2l-0.7-0.3c0.1-0.2,0.2-0.4,0.4-0.4h2.7L13.5,12.4z M13.4,14.4l0.3,0.3l-0.3,0.3h-2.2l-0.3-0.3
		l0.3-0.3H13.4z"/>
	<path class="st1" d="M15.3,12.6v1.6l-0.5,0.5l-0.2-0.2v-2.2L15.3,12.6z M15.3,15.3v1.8L15,17.8c-0.2-0.1-0.4-0.2-0.4-0.4V15
		l0.2-0.2L15.3,15.3z M17.3,12.4h-2l-0.7-0.3c0.1-0.2,0.2-0.4,0.4-0.4h2.5L17.3,12.4z M17.4,14.4l0.3,0.3l-0.3,0.3h-2.2l-0.3-0.3
		l0.3-0.3H17.4z M15.4,15.3h0.5l2.2,2.2c-0.1,0.2-0.3,0.3-0.7,0.3l-2-2C15.4,15.8,15.4,15.3,15.4,15.3z M17.4,14.2v-1.8l0.3-0.7
		c0.2,0.1,0.4,0.2,0.4,0.4v2.3l-0.2,0.2L17.4,14.2z"/>
	<path class="st1" d="M19.6,12.6v1.6l-0.5,0.5l-0.2-0.2v-2.2L19.6,12.6z M18.9,17.2V15l0.2-0.2l0.5,0.5v1.6L18.9,17.2z M22.1,17.8
		h-2.8c-0.2-0.1-0.4-0.2-0.4-0.4l0.7-0.3h2.3L22.1,17.8z M21.9,12.4h-2.2l-0.7-0.3c0.1-0.2,0.2-0.4,0.4-0.4h2.7L21.9,12.4z
		 M21.8,14.4l0.3,0.3l-0.3,0.3h-2.2l-0.3-0.3l0.3-0.3H21.8z"/>
	<path class="st1" d="M23.6,12.6v1.6l-0.5,0.5l-0.2-0.2v-2.2L23.6,12.6z M22.9,17.2V15l0.2-0.2l0.5,0.5v1.6L22.9,17.2z M26.1,17.8
		h-2.8c-0.2-0.1-0.4-0.2-0.4-0.4l0.7-0.3h2.3L26.1,17.8z M25.9,12.4h-2.2L23,12.2c0.1-0.2,0.2-0.4,0.4-0.4h2.8L25.9,12.4z
		 M25.8,14.4l0.3,0.3l-0.3,0.3h-2.2l-0.3-0.3l0.3-0.3H25.8z"/>
	<path class="st1" d="M27.1,14.7L27,14.5v-2.3c0.1-0.2,0.2-0.4,0.4-0.4l0.3,0.7v1.8L27.1,14.7z M27.6,15.3v1.8l-0.3,0.7
		c-0.2-0.1-0.4-0.2-0.4-0.4V15l0.2-0.2L27.6,15.3z M27.8,17.1h2l0.7,0.3c-0.1,0.2-0.2,0.4-0.4,0.4h-2.5L27.8,17.1z"/>
	<path class="st1" d="M31.5,14.7l-0.2-0.2v-1.9l0.4-0.4l0.3,0.3v1.8L31.5,14.7z M32,15.3v1.8l-0.3,0.3l-0.4-0.4V15l0.2-0.2L32,15.3z
		 M34,12.4h-1.8l-0.3-0.3l0.3-0.3H34l0.3,0.3L34,12.4z M34.3,17.4L34,17.8h-1.8l-0.3-0.3l0.3-0.3H34L34.3,17.4z M34.1,14.2v-1.8
		l0.3-0.3l0.4,0.4v1.9l-0.2,0.2L34.1,14.2z M34.6,14.8l0.2,0.2v1.9l-0.4,0.4l-0.3-0.3v-1.8L34.6,14.8z"/>
</g>
</svg>
