<?xml version="1.0" encoding="utf-8"?>
<!-- Generator: Adobe Illustrator 16.0.3, SVG Export Plug-In . SVG Version: 6.00 Build 0)  -->
<!DOCTYPE svg PUBLIC "-//W3C//DTD SVG 1.1//EN" "http://www.w3.org/Graphics/SVG/1.1/DTD/svg11.dtd">
<svg version="1.1" id="Layer_1" xmlns="http://www.w3.org/2000/svg" xmlns:xlink="http://www.w3.org/1999/xlink" x="0px" y="0px"
	 width="20.288px" height="21.902px" viewBox="59.906 95.167 20.288 21.902" enable-background="new 59.906 95.167 20.288 21.902"
	 xml:space="preserve">
<g>
	<g>
		<g>
			<path fill="#0D0024" d="M79.392,117.069H60.707c-0.443,0-0.802-0.362-0.802-0.808v-3.463c0-0.446,0.358-0.808,0.802-0.808l0,0
				c0.442,0,0.801,0.361,0.801,0.808v1.847c0,0.446,0.359,0.809,0.802,0.809h15.479c0.442,0,0.802-0.362,0.802-0.809v-1.847
				c0-0.446,0.358-0.808,0.801-0.808l0,0c0.443,0,0.802,0.361,0.802,0.808v3.463C80.194,116.706,79.835,117.069,79.392,117.069z"/>
		</g>
	</g>
	<g>
		<g>
			<path fill="#0D0024" d="M72.563,105.652v-6.81c0-0.372-0.299-0.675-0.669-0.675h-3.37c-0.37,0-0.669,0.303-0.669,0.675v6.81
				c0,0.373-0.3,0.676-0.67,0.676h-1.696c-0.592,0-0.893,0.716-0.481,1.145l4.689,4.886c0.268,0.278,0.713,0.273,0.973-0.012
				l4.483-4.886c0.396-0.432,0.092-1.133-0.492-1.133h-1.426C72.864,106.327,72.563,106.025,72.563,105.652z"/>
		</g>
	</g>
</g>
</svg>
