<?xml version="1.0" encoding="utf-8"?>
<!-- Generator: Adobe Illustrator 24.1.1, SVG Export Plug-In . SVG Version: 6.00 Build 0)  -->
<svg version="1.1" id="Layer_1" xmlns="http://www.w3.org/2000/svg" xmlns:xlink="http://www.w3.org/1999/xlink" x="0px" y="0px"
	 width="134.4px" height="134.4px" viewBox="0 0 134.4 134.4" style="enable-background:new 0 0 134.4 134.4;" xml:space="preserve"
	>
<style type="text/css">
	.st0{display:none;}
	.st1{display:inline;fill:url(#SVGID_1_);}
	.st2{display:inline;fill:#EFE6FF;}
	.st3{fill:#EC65BD;}
	.st4{fill:#00FFFF;}
	.st5{fill:#FBF5F9;}
	.st6{fill:#FF4FC6;}
	.st7{fill:#FF79AE;}
	.st8{fill:#FFFFFF;}
	.st9{fill:#FAF8F9;}
	.st10{fill:url(#SVGID_2_);}
	.st11{fill:url(#SVGID_3_);}
	.st12{fill:url(#SVGID_4_);}
	.st13{fill:url(#SVGID_5_);}
	.st14{fill:url(#SVGID_6_);}
	.st15{fill:#00B9ED;}
	.st16{fill:#0D0024;}
	.st17{fill:none;}
</style>
<g id="Layer_1_1_">
	<g id="Capa_2">
	</g>
	<g id="centralized" class="st0">
		
			<linearGradient id="SVGID_1_" gradientUnits="userSpaceOnUse" x1="48.7337" y1="-693.7778" x2="84.9839" y2="-730.0277" gradientTransform="matrix(1 0 0 -1 4.000000e-02 -644.5203)">
			<stop  offset="0" style="stop-color:#E68CBC"/>
			<stop  offset="1" style="stop-color:#8366B3"/>
		</linearGradient>
		<polygon class="st1" points="84.9,69.3 84.9,65.3 74.4,65.3 90.4,56.1 88.4,52.6 72.4,61.9 77.7,52.7 74.2,50.7 68.9,59.9 
			68.9,41.3 64.9,41.3 64.9,59.9 59.7,50.7 56.2,52.7 61.5,61.9 45.4,52.6 43.4,56.1 59.5,65.3 48.9,65.3 48.9,69.3 59.5,69.3 
			43.4,78.6 45.4,82.1 61.5,72.8 56.2,81.9 59.7,83.9 64.9,74.8 64.9,93.3 68.9,93.3 68.9,74.8 74.2,83.9 77.7,81.9 72.4,72.8 
			88.4,82.1 90.4,78.6 74.4,69.3 		"/>
		<path class="st2" d="M84.9,71.3c-2.2,0-4-1.8-4-4s1.8-4,4-4s4,1.8,4,4C88.9,69.5,87.1,71.3,84.9,71.3z M70.9,41.3c0,2.2-1.8,4-4,4
			s-4-1.8-4-4s1.8-4,4-4C69.1,37.3,70.9,39.1,70.9,41.3z M70.9,93.3c0,2.2-1.8,4-4,4s-4-1.8-4-4s1.8-4,4-4
			C69.1,89.3,70.9,91.1,70.9,93.3z M52.9,67.3c0-2.2-1.8-4-4-4s-4,1.8-4,4c0,2.2,1.8,4,4,4S52.9,69.5,52.9,67.3z M79.4,53.7
			c-1.1,1.9-3.6,2.6-5.5,1.5s-2.6-3.6-1.5-5.5s3.6-2.6,5.5-1.5C79.8,49.4,80.5,51.8,79.4,53.7z M46.4,50.9c1.9,1.1,2.6,3.6,1.5,5.5
			s-3.6,2.6-5.5,1.5s-2.6-3.5-1.5-5.5C42.1,50.4,44.5,49.8,46.4,50.9z M91.4,76.9c1.9,1.1,2.6,3.6,1.5,5.5s-3.6,2.6-5.5,1.5
			s-2.6-3.6-1.5-5.5C87.1,76.4,89.5,75.8,91.4,76.9z M59.9,79.4c-1.9-1.1-4.4-0.4-5.5,1.5s-0.4,4.4,1.5,5.5s4.4,0.4,5.5-1.5
			S61.8,80.6,59.9,79.4z M61.4,49.7c1.1,1.9,0.4,4.4-1.5,5.5s-4.4,0.4-5.5-1.5s-0.4-4.4,1.5-5.5C57.8,47.2,60.3,47.8,61.4,49.7z
			 M42.4,76.9c1.9-1.1,4.4-0.4,5.5,1.5s0.4,4.4-1.5,5.5s-4.4,0.4-5.5-1.5C39.8,80.4,40.5,78,42.4,76.9z M87.4,50.9
			c1.9-1.1,4.4-0.4,5.5,1.5s0.5,4.4-1.5,5.5c-1.9,1.1-4.4,0.4-5.5-1.5C84.9,54.4,85.5,52,87.4,50.9z M73.9,79.4
			c-1.9,1.1-2.6,3.6-1.5,5.5s3.6,2.6,5.5,1.5s2.6-3.6,1.5-5.5S75.8,78.3,73.9,79.4z M72.9,67.3c0,3.3-2.7,6-6,6c-3.3,0-6-2.7-6-6
			c0-3.3,2.7-6,6-6C70.2,61.3,72.9,64,72.9,67.3z"/>
	</g>
</g>
<g>
	<g>
		<g>
			<g>
				<rect x="65.7" y="18.3" class="st3" width="2.8" height="106"/>
			</g>
			<circle class="st4" cx="67.2" cy="12" r="8"/>
		</g>
		<g>
			<g>
				<circle class="st4" cx="25.4" cy="32.5" r="8"/>
				<circle class="st4" cx="107.9" cy="105.7" r="8"/>
				
					<rect x="68.3" y="18.8" transform="matrix(0.6631 -0.7485 0.7485 0.6631 -30.2618 76.3395)" class="st3" width="2.8" height="106"/>
			</g>
			<circle class="st4" cx="25.4" cy="32.5" r="8"/>
			<circle class="st4" cx="107.9" cy="105.7" r="8"/>
		</g>
		<g>
			<g>
				<g>
					<rect x="18.3" y="65.8" class="st3" width="106" height="2.8"/>
				</g>
				<circle class="st4" cx="12" cy="67.2" r="8"/>
			</g>
			<circle class="st4" cx="122.4" cy="67.2" r="8"/>
		</g>
		<g>
			<g>
				<circle class="st4" cx="112.3" cy="32.5" r="8"/>
				<circle class="st4" cx="29.7" cy="105.7" r="8"/>
				
					<rect x="15" y="70.4" transform="matrix(0.7485 -0.6631 0.6631 0.7485 -30.4997 63.1218)" class="st3" width="106" height="2.8"/>
			</g>
			<circle class="st4" cx="112.3" cy="32.5" r="8"/>
			<circle class="st4" cx="29.7" cy="105.7" r="8"/>
		</g>
		<circle class="st4" cx="67.2" cy="122.4" r="8"/>
	</g>
	<g>
		<path class="st5" d="M92.6,61.7c-0.4-1.7-0.9-3.3-1.5-4.9c-0.6-1.4-1.4-2.9-2.3-4.2c-1-1.4-2-2.7-3.2-3.9
			c-1.3-1.3-2.7-2.4-4.2-3.4c-1.4-0.9-3-1.7-4.5-2.4c-1.4-0.6-3-1.1-4.6-1.4c-0.4-0.1-0.7-0.1-1.1-0.2c-0.1,0-0.2,0-0.4,0
			c-0.2,0-0.5-0.1-0.8-0.1c-0.1,0-0.2,0-0.4,0c-0.4,0-0.7,0-1-0.1h-0.1c-0.5,0-0.8,0-1.3,0s-0.9,0-1.4,0l0,0l0,0l0,0h-0.1
			c-0.4,0-0.7,0-1.1,0.1c-0.1,0-0.2,0-0.4,0c-0.3,0-0.6,0.1-0.8,0.1c-0.1,0-0.2,0-0.4,0c-0.4,0-0.8,0.1-1.2,0.2
			c-1.7,0.4-3.3,0.9-4.9,1.5c-1.4,0.6-2.9,1.4-4.2,2.3c-1.4,1-2.7,2-3.9,3.2c-1.3,1.3-2.4,2.7-3.4,4.2c-0.9,1.4-1.7,3-2.4,4.5
			c-0.6,1.4-1.1,3-1.4,4.6c-0.3,1.6-0.5,3.3-0.5,5.1c0,1.9,0.2,3.6,0.6,5.4c0.4,1.7,0.9,3.3,1.5,4.9c0.6,1.4,1.4,2.9,2.3,4.2
			c1,1.4,2,2.7,3.2,3.9c1.3,1.3,2.7,2.4,4.2,3.4c1.4,0.9,3,1.7,4.5,2.4c1.4,0.6,3,1.1,4.6,1.4c0.4,0.1,0.7,0.1,1.1,0.2
			c0.1,0,0.2,0,0.4,0s0.5,0.1,0.8,0.1c0.1,0,0.2,0,0.4,0c0.4,0,0.7,0,1,0.1c0.5,0,0.9,0,1.4,0c1.9,0,3.6-0.2,5.4-0.6
			c1.7-0.4,3.3-0.9,4.9-1.5c1.4-0.6,2.9-1.4,4.2-2.3c1.4-1,2.7-2,3.9-3.2c1.3-1.3,2.4-2.7,3.4-4.2c0.9-1.4,1.7-3,2.4-4.5
			c0.6-1.4,1.1-3,1.4-4.6s0.5-3.3,0.5-5.1C93.2,65.2,93,63.4,92.6,61.7z M71.5,41.5c-0.1,0-0.2,0-0.2,0
			C71.4,41.5,71.4,41.5,71.5,41.5z M70.7,41.4c-0.2,0-0.4,0-0.6-0.1C70.3,41.3,70.5,41.3,70.7,41.4z M69.6,41.3c-0.3,0-0.7,0-1-0.1
			C69,41.1,69.3,41.2,69.6,41.3z M65.8,41.1c-0.4,0-0.7,0-1.1,0.1C65.1,41.2,65.4,41.2,65.8,41.1z M64.2,41.3c-0.2,0-0.4,0-0.6,0.1
			C63.7,41.4,64,41.3,64.2,41.3z M62.9,41.5c0,0-0.1,0-0.2,0C62.8,41.5,62.9,41.5,62.9,41.5z M62.9,92.7c0.1,0,0.2,0,0.2,0
			C63.1,92.7,63,92.7,62.9,92.7z M63.7,92.8c0.2,0,0.4,0,0.6,0.1C64.2,92.9,64,92.8,63.7,92.8z M64.8,92.9c0.3,0,0.7,0,1,0.1
			C65.5,93,65.2,93,64.8,92.9z"/>
		<path class="st5" d="M43.7,77.3c-0.7-1.5-1.2-3.1-1.5-4.8c-0.2-0.7-0.2-1.4-0.3-2.1l-6.1,0.7c0.1,0.9,0.2,1.7,0.4,2.6
			c0.4,2.1,1.1,4,1.9,5.9c0.2,0.4,0.3,0.7,0.5,1l5.5-2.6C43.9,77.8,43.8,77.6,43.7,77.3z"/>
		<path class="st5" d="M93.8,84.6l-5.1-3.3c-0.9,1.5-2.1,2.8-3.3,4.1c-0.7,0.7-1.4,1.3-2.1,1.9L87,92c0.9-0.7,1.8-1.5,2.6-2.3
			C91.2,88.1,92.6,86.4,93.8,84.6z"/>
		<path class="st5" d="M57.7,91c-1.2-0.5-2.3-1-3.4-1.6l-3.1,5.3c1.3,0.8,2.7,1.5,4.2,2.1c1.6,0.7,3.4,1.2,5.1,1.6l1.3-6
			C60.4,92,59,91.6,57.7,91z"/>
		<path class="st5" d="M90.8,57.1c0.7,1.5,1.2,3.1,1.5,4.8c0.2,0.7,0.2,1.4,0.3,2.1l6.1-0.7c-0.1-0.9-0.2-1.7-0.4-2.6
			c-0.4-2.1-1.1-4-1.9-5.9c-0.2-0.4-0.3-0.7-0.5-1l-5.5,2.6C90.5,56.6,90.7,56.9,90.8,57.1z"/>
		<path class="st5" d="M76.8,43.4c1.2,0.5,2.3,1,3.4,1.6l3.1-5.3c-1.3-0.8-2.7-1.5-4.2-2.1c-1.6-0.7-3.4-1.2-5.1-1.6l-1.3,6
			C74,42.4,75.4,42.9,76.8,43.4z"/>
		<path class="st6" d="M98.7,63.3L92.6,64l0,0c-0.1-0.7-0.2-1.4-0.3-2.1c-0.3-1.6-0.9-3.3-1.5-4.8c-0.1-0.3-0.2-0.6-0.4-0.8l0,0
			l5.5-2.6c-0.7-1.4-1.4-2.8-2.3-4.1c-1.2-1.7-2.5-3.3-4-4.8c-1.6-1.6-3.3-2.9-5.1-4.2c-0.5-0.3-0.9-0.6-1.4-0.8L80,45.1l0,0
			c-1.1-0.6-2.2-1.2-3.4-1.6c-1.3-0.5-2.7-0.9-4.2-1.3l1.3-6c-0.2,0-0.3-0.1-0.5-0.1c-2-0.4-4.1-0.6-6.2-0.6c-2.2,0-4.4,0.2-6.5,0.7
			c-2.1,0.4-4,1.1-5.9,1.9c-1.8,0.8-3.5,1.7-5.1,2.8c-0.7,0.5-1.5,1.1-2.2,1.6l3.8,4.8c-0.7,0.6-1.4,1.2-2.1,1.9
			c-1.2,1.2-2.4,2.6-3.3,4.1l0,0L40.6,50h-0.1c-1.2,1.7-2.1,3.6-2.9,5.5c-0.7,1.8-1.3,3.7-1.6,5.6c-0.4,2-0.6,4.1-0.6,6.2
			c0,1.3,0.1,2.6,0.2,4l6.1-0.7l0,0c0.1,0.7,0.2,1.4,0.3,2.1c0.3,1.6,0.9,3.3,1.5,4.8c0.1,0.3,0.2,0.6,0.4,0.8l-5.5,2.6
			c0.7,1.4,1.4,2.8,2.3,4.1c1.2,1.7,2.5,3.3,4,4.8c1.6,1.6,3.3,2.9,5.1,4.2c0.5,0.3,0.9,0.6,1.4,0.8l3.1-5.3l0,0
			c1.1,0.6,2.2,1.2,3.4,1.6c1.4,0.6,3,1,4.5,1.4c-0.1,0-0.2,0-0.4-0.1l-1.3,6c0.2,0,0.3,0.1,0.5,0.1c2,0.4,4.1,0.6,6.2,0.6
			c2.2,0,4.4-0.2,6.5-0.7c2.1-0.4,4-1.1,5.9-1.9c1.8-0.8,3.5-1.7,5.1-2.8c0.7-0.5,1.5-1.1,2.2-1.6l-3.8-4.8c0.7-0.6,1.4-1.2,2.1-1.9
			c1.2-1.2,2.3-2.6,3.3-4.1l5.1,3.3v-0.1c1.2-1.7,2.1-3.6,2.9-5.5c0.7-1.8,1.3-3.7,1.6-5.6c0.4-2,0.6-4.1,0.6-6.2
			C98.9,65.9,98.9,64.5,98.7,63.3z M90.1,55.6c0-0.1-0.1-0.2-0.1-0.2C90,55.4,90,55.5,90.1,55.6z M89.1,53.8
			c-0.2-0.3-0.4-0.6-0.6-0.9C88.7,53.3,88.9,53.6,89.1,53.8z M89.6,54.8c-0.1-0.2-0.2-0.3-0.2-0.5C89.4,54.4,89.5,54.6,89.6,54.8z
			 M53,45.9c-0.3,0.2-0.6,0.4-0.9,0.7C52.4,46.3,52.7,46.1,53,45.9z M41.7,69.5L41.7,69.5L41.7,69.5z M41.6,68c0,0.1,0,0.1,0,0.2
			C41.6,68.1,41.6,68,41.6,68z M41.6,68.7c0,0,0,0.1,0,0.2C41.6,68.9,41.6,68.8,41.6,68.7z M44.4,78.8c0,0.1,0.1,0.2,0.1,0.2
			S44.4,78.9,44.4,78.8z M45.3,80.6c0.2,0.3,0.4,0.6,0.6,0.9C45.7,81.1,45.6,80.9,45.3,80.6z M44.9,79.7c0.1,0.2,0.2,0.3,0.2,0.5
			C45,80,44.9,79.8,44.9,79.7z M81.4,88.5c0.3-0.2,0.6-0.4,0.9-0.7C82.1,88.1,81.8,88.3,81.4,88.5z M85.9,79.4
			C85,80.7,84.1,81.9,83,83c-1,1-2.2,2-3.4,2.8c-1.1,0.7-2.3,1.4-3.6,2c-1.3,0.6-2.7,1-4.2,1.3s-3,0.5-4.6,0.5c-1.5,0-3-0.2-4.4-0.4
			c-1.4-0.3-2.7-0.7-3.9-1.2c-1.4-0.5-2.7-1.2-3.9-2c-1.3-0.9-2.5-1.8-3.6-2.9c-1-1-2-2.2-2.8-3.4c-0.7-1.1-1.4-2.3-2-3.6
			c-0.6-1.3-1-2.7-1.3-4.2s-0.5-3-0.5-4.6c0-1.5,0.2-3,0.4-4.4c0.3-1.4,0.7-2.7,1.2-3.9c0.5-1.4,1.2-2.7,2-3.9
			c0.9-1.3,1.8-2.5,2.9-3.6c1-1,2.2-2,3.4-2.8c1.1-0.7,2.3-1.4,3.6-2s2.7-1,4.2-1.3s3-0.5,4.6-0.5c1.5,0,3,0.2,4.4,0.4
			c1.4,0.3,2.7,0.7,3.9,1.2c1.4,0.5,2.7,1.2,3.9,2c1.3,0.9,2.5,1.8,3.6,2.9c1,1,2,2.2,2.8,3.4c0.7,1.1,1.4,2.3,2,3.6s1,2.7,1.3,4.2
			s0.5,3,0.5,4.6c0,1.5-0.2,3-0.4,4.4c-0.3,1.4-0.7,2.7-1.2,3.9C87.4,76.9,86.7,78.2,85.9,79.4z M92.7,64.8L92.7,64.8L92.7,64.8z
			 M92.8,65.5c0,0,0,0.1,0,0.2C92.8,65.6,92.8,65.6,92.8,65.5z M92.9,66.3c0,0,0,0.1,0,0.2C92.9,66.4,92.9,66.3,92.9,66.3z"/>
		<path class="st5" d="M49.1,49.1c0.7-0.7,1.4-1.3,2.1-1.9l-3.8-4.8c-0.9,0.7-1.8,1.5-2.6,2.3c-1.5,1.5-2.9,3.2-4.1,5l5.1,3.4
			C46.7,51.7,47.9,50.3,49.1,49.1z"/>
		<path class="st7" d="M88.7,62.6c-0.3-1.4-0.7-2.8-1.3-4.1c-0.5-1.2-1.2-2.4-1.9-3.5c-0.8-1.2-1.7-2.3-2.7-3.3
			c-1.1-1.1-2.3-2-3.5-2.9c-1.2-0.8-2.5-1.4-3.8-2c-1.2-0.5-2.5-0.9-3.9-1.2c-1.4-0.2-2.8-0.5-4.3-0.5s-3,0.2-4.5,0.5
			c-1.4,0.3-2.8,0.7-4.1,1.3c-1.2,0.5-2.4,1.2-3.5,1.9c-1.2,0.8-2.3,1.7-3.3,2.7c-1.1,1.1-2,2.3-2.9,3.5c-0.8,1.2-1.4,2.5-2,3.8
			c-0.5,1.2-0.9,2.5-1.2,3.9c-0.2,1.4-0.5,2.8-0.5,4.3s0.2,3,0.5,4.5c0.3,1.4,0.7,2.8,1.3,4.1c0.5,1.2,1.2,2.4,1.9,3.5
			c0.8,1.2,1.7,2.3,2.7,3.3c1.1,1.1,2.3,2,3.5,2.9c1.2,0.8,2.5,1.4,3.8,2c1.2,0.5,2.5,0.9,3.9,1.2C64,88.8,65,89,66.1,89
			c-1.1,0-2.1-0.2-3.2-0.4c-1.3-0.2-2.6-0.7-3.8-1.2c-1.3-0.5-2.6-1.2-3.8-2c-1.3-0.8-2.4-1.8-3.5-2.8c-1-1-1.9-2.1-2.7-3.3
			c-0.7-1.1-1.4-2.3-1.9-3.5c-0.6-1.3-1-2.6-1.3-4s-0.5-3-0.5-4.4s0.1-2.9,0.4-4.2c0.2-1.3,0.7-2.6,1.2-3.8c0.5-1.3,1.2-2.6,2-3.8
			c0.8-1.3,1.8-2.4,2.8-3.5c1-1,2.1-1.9,3.3-2.7c1.1-0.7,2.3-1.4,3.5-1.9c1.3-0.6,2.6-1,4-1.3s3-0.5,4.4-0.5s2.9,0.1,4.2,0.5
			c1.3,0.2,2.6,0.7,3.8,1.2c1.3,0.5,2.6,1.2,3.8,2c1.3,0.8,2.4,1.8,3.5,2.8c1,1,1.9,2.1,2.7,3.3c0.7,1.1,1.4,2.3,1.9,3.5
			c0.6,1.3,1,2.6,1.3,4s0.5,3,0.5,4.4s-0.1,2.9-0.5,4.2c-0.2,1.3-0.7,2.6-1.2,3.8c-0.5,1.3-1.2,2.6-2,3.8c-0.8,1.3-1.8,2.4-2.8,3.5
			c-1,1-2.1,1.9-3.3,2.7c-1.1,0.7-2.3,1.4-3.5,1.9c-1.3,0.6-2.6,1-4,1.3s-3,0.5-4.4,0.5c1.5,0,3-0.2,4.5-0.5
			c1.4-0.3,2.8-0.7,4.1-1.3c1.2-0.5,2.4-1.2,3.5-1.9c1.2-0.8,2.3-1.7,3.3-2.7c1.1-1.1,2-2.3,2.9-3.5c0.8-1.2,1.4-2.5,2-3.8
			c0.5-1.2,0.9-2.5,1.2-3.9c0.2-1.4,0.5-2.8,0.5-4.3C89.1,65.5,89,64,88.7,62.6z"/>
		<path class="st8" d="M46.9,53.8c-0.9,1.4-1.6,2.8-2.2,4.2c-0.6,1.4-1,2.8-1.3,4.3s-0.5,3.1-0.5,4.7c0,1.7,0.2,3.3,0.5,5
			c0.3,1.5,0.8,3.1,1.4,4.5c0.6,1.4,1.3,2.7,2.1,3.9c0.9,1.3,1.9,2.6,3,3.7c1.2,1.2,2.5,2.3,3.9,3.2c1.4,0.9,2.8,1.6,4.2,2.2
			s2.8,1,4.3,1.3c1.6,0.3,3.2,0.5,4.8,0.5c1.7,0,3.3-0.2,5-0.5c1.5-0.3,3.1-0.8,4.5-1.4s2.7-1.3,3.9-2.1c1.3-0.9,2.6-1.9,3.7-3
			c1.2-1.2,2.3-2.5,3.2-3.9c0.9-1.4,1.6-2.8,2.2-4.2c0.6-1.4,1-2.8,1.3-4.3c0.3-1.6,0.5-3.2,0.5-4.8c0-1.7-0.2-3.3-0.5-5
			c-0.3-1.5-0.8-3.1-1.4-4.5s-1.3-2.7-2.1-3.9c-0.9-1.3-1.9-2.6-3-3.7c-1.2-1.2-2.5-2.3-3.9-3.2s-2.8-1.6-4.2-2.2
			c-1.4-0.6-2.8-1-4.3-1.3c-1.6-0.3-3.2-0.5-4.8-0.5c-1.7,0-3.3,0.2-5,0.5c-1.5,0.3-3.1,0.8-4.5,1.4c-1.4,0.6-2.7,1.3-3.9,2.1
			c-1.3,0.9-2.6,1.9-3.7,3C48.9,51.1,47.8,52.4,46.9,53.8z M58.4,46.6c1.4-0.6,2.8-1,4.2-1.3c1.5-0.3,3-0.5,4.6-0.5
			c1.4,0,2.9,0.1,4.4,0.5c1.3,0.2,2.6,0.7,3.9,1.2c1.4,0.5,2.6,1.2,3.9,2s2.5,1.8,3.6,2.9c1.1,1.1,2,2.2,2.8,3.4
			c0.7,1.2,1.4,2.4,1.9,3.6c0.6,1.4,1,2.8,1.3,4.2c0.3,1.5,0.5,3,0.5,4.6c0,1.4-0.1,2.9-0.5,4.4c-0.2,1.3-0.7,2.6-1.2,3.9
			c-0.5,1.4-1.2,2.6-2,3.9S84,81.9,82.9,83s-2.2,2-3.4,2.8c-1.2,0.7-2.4,1.4-3.6,1.9c-1.4,0.6-2.8,1-4.2,1.3c-1.5,0.3-3,0.5-4.6,0.5
			c-1.4,0-2.9-0.1-4.4-0.5c-1.3-0.2-2.6-0.7-3.9-1.2c-1.4-0.5-2.6-1.2-3.9-2c-1.3-0.8-2.5-1.8-3.6-2.9s-2-2.2-2.8-3.4
			c-0.7-1.2-1.4-2.4-1.9-3.6c-0.6-1.4-1-2.8-1.3-4.2c-0.3-1.5-0.5-3-0.5-4.6c0-1.4,0.1-2.9,0.5-4.4c0.2-1.3,0.7-2.6,1.2-3.9
			c0.5-1.4,1.2-2.6,2-3.9c0.8-1.3,1.8-2.5,2.9-3.6c1.1-1.1,2.2-2,3.4-2.8C56,47.8,57.2,47.1,58.4,46.6z"/>
		<path class="st5" d="M85.4,54.9l1.6-1.1c-0.9-1.3-1.9-2.5-3-3.6l-1.4,1.4C83.7,52.6,84.7,53.7,85.4,54.9z"/>
		<path class="st6" d="M87.4,58.5l1.8-0.7c-0.6-1.4-1.3-2.6-2.1-3.8l-1.7,1C86.2,56,86.8,57.2,87.4,58.5z"/>
		<path class="st5" d="M88.7,62.6l1.9-0.4c-0.3-1.5-0.8-3-1.4-4.4l-1.8,0.7C88,59.8,88.4,61.1,88.7,62.6z"/>
		<path class="st6" d="M82.7,82.5l1.4,1.4c1.2-1.2,2.2-2.5,3.1-3.8L85.6,79C84.7,80.3,83.8,81.5,82.7,82.5z"/>
		<path class="st6" d="M46.9,59l-1.8-0.7c-0.5,1.4-1,2.7-1.2,4.2l1.9,0.4C46,61.5,46.4,60.2,46.9,59z"/>
		<path class="st5" d="M45.8,71.6L43.9,72c0.3,1.5,0.8,3,1.4,4.4l1.8-0.7C46.5,74.4,46.1,73,45.8,71.6z"/>
		<path class="st5" d="M45.8,62.8l-1.9-0.4c-0.3,1.5-0.5,3.1-0.5,4.7h1.9C45.3,65.6,45.4,64.2,45.8,62.8z"/>
		<path class="st6" d="M45.3,67.1h-1.9c0,1.7,0.2,3.3,0.5,4.9l1.9-0.4C45.5,70.1,45.3,68.6,45.3,67.1z"/>
		<path class="st6" d="M47.1,75.7l-1.8,0.7c0.6,1.4,1.3,2.6,2.1,3.8l1.6-1.1C48.3,78.1,47.6,77,47.1,75.7z"/>
		<path class="st6" d="M51.7,82.5l-1.4,1.4c1.2,1.2,2.5,2.2,3.8,3.1l1.1-1.6C54,84.6,52.8,83.6,51.7,82.5z"/>
		<path class="st5" d="M49,79.2l-1.6,1.1c0.9,1.3,1.9,2.5,3,3.6l1.4-1.4C50.7,81.6,49.8,80.4,49,79.2z"/>
		<path class="st5" d="M55.3,85.4L54.2,87c1.3,0.8,2.7,1.6,4.2,2.1l0.7-1.8C57.7,86.9,56.5,86.2,55.3,85.4z"/>
		<path class="st5" d="M48.9,55.1L47.3,54c-0.8,1.3-1.6,2.7-2.1,4.2l1.8,0.7C47.4,57.6,48.1,56.3,48.9,55.1z"/>
		<path class="st6" d="M67.2,45.2v-1.9c-1.7,0-3.3,0.2-4.9,0.5l0.4,1.9C64.2,45.3,65.7,45.2,67.2,45.2z"/>
		<path class="st6" d="M58.6,46.9l-0.7-1.8c-1.4,0.6-2.6,1.3-3.8,2.1l1.1,1.6C56.2,48.1,57.4,47.4,58.6,46.9z"/>
		<path class="st5" d="M62.7,45.7l-0.4-1.9c-1.5,0.3-3,0.8-4.4,1.4l0.7,1.8C59.9,46.4,61.3,45.9,62.7,45.7z"/>
		<path class="st6" d="M51.7,51.6l-1.4-1.4c-1.2,1.2-2.2,2.5-3.1,3.8l1.6,1.1C49.7,53.8,50.7,52.7,51.7,51.6z"/>
		<path class="st5" d="M55.1,48.9L54,47.3c-1.3,0.9-2.5,1.9-3.6,3l1.4,1.4C52.8,50.6,53.9,49.6,55.1,48.9z"/>
		<path class="st6" d="M88.7,62.6c0.3,1.4,0.5,3,0.5,4.5h1.9c0-1.7-0.2-3.3-0.5-4.9L88.7,62.6z"/>
		<path class="st5" d="M88.7,71.4l1.9,0.4c0.3-1.5,0.5-3.1,0.5-4.7h-1.9C89.1,68.5,89,69.9,88.7,71.4z"/>
		<path class="st6" d="M82.7,51.6l1.4-1.4c-1.2-1.2-2.5-2.2-3.8-3.1l-1.1,1.6C80.5,49.6,81.7,50.5,82.7,51.6z"/>
		<path class="st6" d="M87.5,75.3l1.8,0.7c0.5-1.4,1-2.7,1.2-4.2l-1.9-0.4C88.4,72.7,88.1,74,87.5,75.3z"/>
		<path class="st6" d="M59.1,87.4l-0.7,1.8c1.4,0.5,2.7,1,4.2,1.3l0.4-1.9C61.6,88.3,60.3,87.9,59.1,87.4z"/>
		<path class="st5" d="M79.2,48.7l1.1-1.6c-1.3-0.8-2.7-1.6-4.2-2.1l-0.7,1.8C76.7,47.3,78,47.9,79.2,48.7z"/>
		<path class="st6" d="M75.4,46.7l0.7-1.8c-1.4-0.5-2.7-1-4.2-1.2l-0.4,1.9C72.8,45.9,74.1,46.3,75.4,46.7z"/>
		<path class="st5" d="M85.6,79l1.6,1.1c0.8-1.3,1.6-2.7,2.1-4.2l-1.8-0.7C87,76.6,86.4,77.8,85.6,79z"/>
		<path class="st6" d="M67.2,89v1.9c1.7,0,3.3-0.2,4.9-0.5l-0.4-1.9C70.3,88.8,68.8,89,67.2,89z"/>
		<path class="st5" d="M71.5,45.6l0.4-1.9c-1.5-0.3-3.1-0.5-4.7-0.5v1.9C68.7,45.2,70.1,45.3,71.5,45.6z"/>
		<path class="st5" d="M62.9,88.5l-0.4,1.9c1.5,0.3,3.1,0.5,4.7,0.5V89C65.8,89,64.3,88.9,62.9,88.5z"/>
		<path class="st5" d="M71.7,88.5l0.4,1.9c1.5-0.3,3-0.8,4.4-1.4l-0.7-1.8C74.6,87.8,73.1,88.3,71.7,88.5z"/>
		<path class="st6" d="M75.8,87.2l0.7,1.8c1.4-0.6,2.6-1.3,3.8-2.1l-1.1-1.6C78.3,86,77.1,86.7,75.8,87.2z"/>
		<path class="st5" d="M79.4,85.3l1.1,1.6c1.3-0.9,2.5-1.9,3.6-3l-1.4-1.4C81.7,83.6,80.6,84.5,79.4,85.3z"/>
		<path class="st5" d="M40.2,71.4c0,0.1,0,0.1,0,0.2C40.2,71.5,40.2,71.5,40.2,71.4z"/>
		<path class="st5" d="M86.6,86.5c1.3-1.3,2.5-2.8,3.5-4.4C89.1,83.7,88,85.2,86.6,86.5z"/>
		<path class="st5" d="M94.3,62.6L94.3,62.6L94.3,62.6z"/>
		<path class="st9" d="M46,49.8c-0.6,0.7-1.2,1.5-1.7,2.3C44.8,51.3,45.3,50.5,46,49.8z"/>
		<path class="st9" d="M46.8,48.7c-0.3,0.3-0.6,0.7-0.8,1C46.3,49.3,46.6,49,46.8,48.7z"/>
		
			<linearGradient id="SVGID_2_" gradientUnits="userSpaceOnUse" x1="-1167.6714" y1="699.0755" x2="-1167.1725" y2="699.0755" gradientTransform="matrix(3.7452 -1.1097 1.1097 3.7452 3633.2095 -3837.6985)">
			<stop  offset="0" style="stop-color:#9FA3A5"/>
			<stop  offset="0.2936" style="stop-color:#C6C8C9"/>
			<stop  offset="0.5842" style="stop-color:#E5E6E7"/>
			<stop  offset="0.8296" style="stop-color:#F8F8F9"/>
			<stop  offset="1" style="stop-color:#FFFFFF"/>
		</linearGradient>
		<path class="st10" d="M39,80.5c-0.2-0.3-0.3-0.7-0.5-1c-0.8-1.9-1.4-3.8-1.9-5.8c-0.2-0.8-0.3-1.7-0.4-2.6h-0.5
			c0.1,0.9,0.2,1.7,0.4,2.6c0.4,2.1,1.1,4,1.9,5.9c0.2,0.4,0.3,0.7,0.5,1L39,80.5z"/>
		
			<linearGradient id="SVGID_3_" gradientUnits="userSpaceOnUse" x1="-1633.3168" y1="164.7104" x2="-1632.8175" y2="164.7104" gradientTransform="matrix(-5.3902 -5.3902 5.3902 -5.3902 -9599.7109 -7826.0669)">
			<stop  offset="0" style="stop-color:#9FA3A5"/>
			<stop  offset="0.2936" style="stop-color:#C6C8C9"/>
			<stop  offset="0.5842" style="stop-color:#E5E6E7"/>
			<stop  offset="0.8296" style="stop-color:#F8F8F9"/>
			<stop  offset="1" style="stop-color:#FFFFFF"/>
		</linearGradient>
		<path class="st11" d="M89.4,89.3c-0.8,0.8-1.7,1.6-2.6,2.3L87,92c0.9-0.7,1.8-1.5,2.6-2.3c1.5-1.5,2.9-3.2,4.1-5l-0.4-0.2
			C92.2,86.1,90.8,87.8,89.4,89.3z"/>
		
			<linearGradient id="SVGID_4_" gradientUnits="userSpaceOnUse" x1="-1486.3838" y1="-73.0221" x2="-1485.8842" y2="-73.0221" gradientTransform="matrix(-6.7547 1.559 -1.559 -6.7547 -10054.6123 1882.1288)">
			<stop  offset="0" style="stop-color:#9FA3A5"/>
			<stop  offset="0.2936" style="stop-color:#C6C8C9"/>
			<stop  offset="0.5842" style="stop-color:#E5E6E7"/>
			<stop  offset="0.8296" style="stop-color:#F8F8F9"/>
			<stop  offset="1" style="stop-color:#FFFFFF"/>
		</linearGradient>
		<path class="st12" d="M96,54.9c0.8,1.9,1.4,3.8,1.9,5.8c0.2,0.8,0.3,1.7,0.4,2.6h0.5c-0.1-0.9-0.2-1.7-0.4-2.6
			c-0.4-2.1-1.1-4-1.9-5.9c-0.2-0.4-0.3-0.7-0.5-1L95.6,54C95.6,54.2,95.8,54.5,96,54.9z"/>
		
			<linearGradient id="SVGID_5_" gradientUnits="userSpaceOnUse" x1="-1210.4564" y1="-60.5087" x2="-1209.9579" y2="-60.5087" gradientTransform="matrix(-2.6351 6.3796 -6.3796 -2.6351 -3496.1597 7598.3145)">
			<stop  offset="0" style="stop-color:#9FA3A5"/>
			<stop  offset="0.2936" style="stop-color:#C6C8C9"/>
			<stop  offset="0.5842" style="stop-color:#E5E6E7"/>
			<stop  offset="0.8296" style="stop-color:#F8F8F9"/>
			<stop  offset="1" style="stop-color:#FFFFFF"/>
		</linearGradient>
		<path class="st13" d="M78.9,38.2c1.4,0.6,2.8,1.2,4.1,2l0.2-0.4c-1.3-0.8-2.7-1.5-4.2-2.1c-1.6-0.7-3.4-1.2-5.1-1.6l-0.1,0.5
			C75.6,37,77.2,37.5,78.9,38.2z"/>
		<path class="st8" d="M36.2,71.1C36,69.8,36,68.5,36,67.2c0-2.1,0.2-4.1,0.6-6.1c0.4-1.9,0.9-3.7,1.6-5.5c0.8-1.9,1.7-3.7,2.8-5.4
			v-0.1l-0.4-0.2h-0.1c-1.2,1.7-2.1,3.6-2.9,5.5c-0.7,1.8-1.3,3.7-1.6,5.6c-0.4,2-0.6,4.1-0.6,6.2c0,1.3,0.1,2.6,0.2,4L36.2,71.1z"
			/>
		<path class="st8" d="M51.5,94.2c-0.5-0.2-0.9-0.5-1.3-0.8c-1.8-1.2-3.5-2.6-5-4.1c-1.4-1.4-2.8-3-3.9-4.7c-0.9-1.3-1.6-2.6-2.3-4
			l-0.4,0.2c0.7,1.4,1.4,2.8,2.3,4.1c1.2,1.7,2.5,3.3,4,4.8c1.6,1.6,3.3,2.9,5.1,4.2c0.5,0.3,0.9,0.6,1.4,0.8L51.5,94.2z"/>
		<path class="st8" d="M86.8,91.6c-0.7,0.6-1.4,1.1-2.2,1.6c-1.6,1.1-3.3,2-5.1,2.8c-1.9,0.8-3.8,1.4-5.8,1.9
			c-2.1,0.5-4.2,0.7-6.5,0.7c-2.1,0-4.1-0.2-6.1-0.6c-0.2,0-0.3-0.1-0.5-0.1l-0.1,0.5c0.2,0,0.3,0.1,0.5,0.1c2,0.4,4.1,0.6,6.2,0.6
			c2.2,0,4.4-0.2,6.5-0.7c2.1-0.4,4-1.1,5.9-1.9c1.8-0.8,3.5-1.7,5.1-2.8c0.7-0.5,1.5-1.1,2.2-1.6L86.8,91.6z"/>
		<path class="st8" d="M98.7,63.3h-0.5l0,0c0.2,1.3,0.2,2.6,0.2,3.9c0,2.1-0.2,4.1-0.6,6.1c-0.4,1.9-0.9,3.7-1.6,5.5
			c-0.8,1.9-1.7,3.7-2.8,5.4v0.1l0.4,0.2v-0.1c1.2-1.7,2.1-3.6,2.9-5.5c0.7-1.8,1.3-3.7,1.6-5.6c0.4-2,0.6-4.1,0.6-6.2
			C98.9,65.9,98.9,64.5,98.7,63.3z"/>
		<path class="st8" d="M83,40.2c0.5,0.2,0.9,0.5,1.3,0.8c1.8,1.2,3.5,2.6,5,4.1c1.4,1.4,2.8,3,3.9,4.7c0.9,1.3,1.6,2.6,2.3,4
			l0.4-0.2c-0.7-1.4-1.4-2.8-2.3-4.1c-1.2-1.7-2.5-3.3-4-4.8c-1.6-1.6-3.3-2.9-5.1-4.2c-0.5-0.3-0.9-0.6-1.4-0.8L83,40.2z"/>
		<path class="st8" d="M47.7,42.8c0.7-0.6,1.4-1.1,2.2-1.6c1.6-1.1,3.3-2,5.1-2.8c1.9-0.8,3.8-1.4,5.8-1.9c2.1-0.5,4.2-0.7,6.5-0.7
			c2.1,0,4.1,0.2,6.1,0.6c0.2,0,0.3,0.1,0.5,0.1L74,36c-0.2,0-0.3-0.1-0.5-0.1c-2-0.4-4.1-0.6-6.2-0.6c-2.2,0-4.4,0.2-6.5,0.7
			c-2.1,0.4-4,1.1-5.9,1.9c-1.8,0.8-3.5,1.7-5.1,2.8c-0.7,0.5-1.5,1.1-2.2,1.6L47.7,42.8z"/>
		
			<linearGradient id="SVGID_6_" gradientUnits="userSpaceOnUse" x1="-1119.8961" y1="242.4716" x2="-1119.3959" y2="242.4716" gradientTransform="matrix(6.2075 5.75 -5.75 6.2075 8387.5693 4978.0425)">
			<stop  offset="0" style="stop-color:#9FA3A5"/>
			<stop  offset="0.2936" style="stop-color:#C6C8C9"/>
			<stop  offset="0.5842" style="stop-color:#E5E6E7"/>
			<stop  offset="0.8296" style="stop-color:#F8F8F9"/>
			<stop  offset="1" style="stop-color:#FFFFFF"/>
		</linearGradient>
		<path class="st14" d="M45.1,45.1c0.8-0.8,1.7-1.6,2.6-2.3l-0.3-0.4c-0.9,0.7-1.8,1.5-2.6,2.3c-1.5,1.5-2.9,3.2-4.1,5l0.4,0.2
			C42.3,48.3,43.6,46.6,45.1,45.1z"/>
		<path class="st9" d="M59.5,40.5c0-0.7,0.6-1.3,1.3-1.3s1.3,0.6,1.3,1.3s-0.6,1.3-1.3,1.3S59.5,41.2,59.5,40.5z"/>
		<path class="st9" d="M38.9,62.4c0-0.7,0.6-1.3,1.3-1.3s1.3,0.6,1.3,1.3s-0.6,1.3-1.3,1.3S38.9,63.1,38.9,62.4z"/>
		<path class="st9" d="M44.6,87.5c0-0.7,0.6-1.4,1.4-1.4c0.7,0,1.4,0.6,1.4,1.4s-0.6,1.4-1.4,1.4C45.2,88.8,44.6,88.3,44.6,87.5z"/>
		<path class="st9" d="M92.6,73.5c0-0.7,0.6-1.3,1.3-1.3s1.3,0.6,1.3,1.3c0,0.7-0.6,1.3-1.3,1.3S92.6,74.3,92.6,73.5z"/>
		<path class="st9" d="M86.3,48.9c0-0.7,0.6-1.3,1.3-1.3s1.3,0.6,1.3,1.3s-0.6,1.3-1.3,1.3C86.8,50.2,86.3,49.6,86.3,48.9z"/>
		<path class="st8" d="M85.6,79c0.8-1.2,1.4-2.5,2-3.8c0.5-1.3,0.9-2.6,1.2-3.9c0.2-1.4,0.5-2.9,0.5-4.3c0-1.5-0.2-3-0.5-4.5
			c-0.3-1.4-0.7-2.8-1.3-4.1c-0.5-1.2-1.2-2.4-1.9-3.6c-0.2-0.2-0.4-0.5-0.5-0.8c0-0.1-0.1-0.2-0.2-0.2c-0.1-0.2-0.2-0.4-0.5-0.5
			c0-0.1-0.1-0.2-0.2-0.2c-0.2-0.2-0.4-0.5-0.6-0.7l-0.1-0.1c-0.2-0.2-0.5-0.5-0.7-0.8S82.3,51,82,50.7l0,0l0,0l0,0h-0.1
			c-0.2-0.2-0.5-0.4-0.7-0.6C81.1,50,81,50,81,49.9c-0.2-0.1-0.4-0.3-0.6-0.5c-0.1,0-0.2-0.1-0.2-0.2c-0.2-0.2-0.5-0.4-0.8-0.6
			c-1.2-0.8-2.5-1.4-3.8-2c-1.3-0.5-2.6-0.9-3.9-1.2c-1.4-0.2-2.9-0.5-4.3-0.5c-1.5,0-3,0.2-4.5,0.5c-1.4,0.3-2.8,0.7-4.1,1.3
			c-1.2,0.5-2.4,1.2-3.6,1.9c-1.2,0.8-2.3,1.7-3.3,2.7c-1.1,1.1-2,2.3-2.9,3.5c-0.8,1.2-1.4,2.5-2,3.8c-0.5,1.3-0.9,2.6-1.2,3.9
			c-0.2,1.4-0.5,2.9-0.5,4.3c0,1.5,0.2,3,0.5,4.5c0.3,1.4,0.7,2.8,1.3,4.1c0.5,1.2,1.2,2.4,1.9,3.6c0.2,0.2,0.4,0.5,0.5,0.8
			c0,0.1,0.1,0.2,0.2,0.2c0.1,0.2,0.2,0.4,0.5,0.5c0,0.1,0.1,0.2,0.2,0.2c0.2,0.2,0.4,0.5,0.6,0.7c0.2,0.3,0.5,0.6,0.8,0.8
			c1.1,1.1,2.3,2,3.5,2.9c1.2,0.8,2.5,1.4,3.8,2c1.3,0.5,2.6,0.9,3.9,1.2c1.4,0.2,2.9,0.5,4.3,0.5c1.5,0,3-0.2,4.5-0.5
			c1.4-0.3,2.8-0.7,4.1-1.3c1.2-0.5,2.4-1.2,3.6-1.9c1.2-0.8,2.3-1.7,3.3-2.7C83.8,81.5,84.8,80.3,85.6,79z M85.1,54.3
			c0,0-0.1-0.1-0.1-0.2C85,54.2,85,54.3,85.1,54.3z M84.7,53.8c-0.1-0.1-0.2-0.2-0.3-0.4C84.4,53.5,84.6,53.6,84.7,53.8z M84.1,53.1
			c-0.2-0.2-0.4-0.5-0.5-0.6C83.7,52.7,83.9,52.9,84.1,53.1z M81.8,50.8c-0.2-0.2-0.5-0.4-0.7-0.6C81.4,50.3,81.6,50.5,81.8,50.8z
			 M80.8,49.9c-0.1-0.1-0.2-0.2-0.4-0.3C80.5,49.6,80.7,49.8,80.8,49.9z M79.9,49.2c0,0-0.1-0.1-0.2-0.1
			C79.8,49.2,79.9,49.2,79.9,49.2z M49.4,79.8c0,0,0.1,0.1,0.1,0.2C49.5,79.9,49.4,79.8,49.4,79.8z M49.8,80.4
			c0.1,0.1,0.2,0.2,0.3,0.4C50,80.6,49.9,80.5,49.8,80.4z M50.4,81.1c0.2,0.2,0.4,0.5,0.5,0.6C50.7,81.5,50.5,81.3,50.4,81.1z"/>
		<path class="st15" d="M88.2,62.7c-0.3-1.4-0.7-2.7-1.3-4c-0.5-1.2-1.2-2.4-1.9-3.5c-0.8-1.2-1.7-2.3-2.7-3.3
			c-1.1-1.1-2.2-2-3.4-2.8c-1.2-0.7-2.4-1.4-3.7-1.9c-1.2-0.5-2.5-0.9-3.8-1.2c-0.3,0-0.6-0.1-0.9-0.2c-0.1,0-0.2,0-0.3,0
			c-0.2,0-0.5,0-0.7-0.1c-0.1,0-0.2,0-0.3,0c-0.2,0-0.6,0-0.8,0h-0.1c-0.4,0-0.7,0-1.1,0c-0.4,0-0.7,0-1.1,0l0,0l0,0l0,0H66
			c-0.3,0-0.6,0-0.9,0.1c-0.1,0-0.2,0-0.3,0c-0.2,0-0.5,0-0.7,0.1c-0.1,0-0.2,0-0.3,0c-0.3,0-0.7,0.1-1,0.2c-1.4,0.3-2.7,0.7-4,1.3
			c-1.2,0.5-2.4,1.2-3.5,1.9C54.1,50.1,53,51,52,52c-1.1,1.1-2,2.2-2.8,3.4c-0.7,1.2-1.4,2.4-1.9,3.7c-0.5,1.2-0.9,2.5-1.2,3.8
			c-0.2,1.4-0.4,2.8-0.4,4.2c0,1.5,0.2,3,0.5,4.4c0.3,1.4,0.7,2.7,1.3,4c0.5,1.2,1.2,2.4,1.9,3.5c0.8,1.2,1.7,2.3,2.7,3.3
			c1.1,1.1,2.2,2,3.4,2.8c1.2,0.7,2.4,1.4,3.7,1.9c1.2,0.5,2.5,0.9,3.8,1.2c0.3,0,0.6,0.1,0.9,0.2c0.1,0,0.2,0,0.3,0
			c0.2,0,0.5,0,0.7,0.1c0.1,0,0.2,0,0.3,0c0.2,0,0.6,0,0.8,0c0.4,0,0.7,0,1.2,0c1.5,0,3-0.2,4.4-0.5c1.4-0.3,2.7-0.7,4-1.3
			c1.2-0.5,2.4-1.2,3.5-1.9c1.2-0.8,2.3-1.7,3.3-2.7c1.1-1.1,2-2.2,2.8-3.4c0.7-1.2,1.4-2.4,1.9-3.7c0.5-1.2,0.9-2.5,1.2-3.8
			c0.2-1.4,0.4-2.8,0.4-4.2C88.7,65.5,88.5,64.1,88.2,62.7z M70.8,45.9c0,0-0.1,0-0.2,0C70.6,45.9,70.7,45.9,70.8,45.9z M70.1,45.8
			c-0.2,0-0.3,0-0.5,0C69.8,45.8,69.9,45.8,70.1,45.8z M69.2,45.7c-0.2,0-0.5,0-0.8,0C68.6,45.7,68.9,45.7,69.2,45.7z M64.7,45.8
			c-0.2,0-0.4,0-0.5,0.1C64.4,45.8,64.6,45.8,64.7,45.8z M63.7,45.9c-0.1,0-0.1,0-0.2,0C63.5,45.9,63.6,45.9,63.7,45.9z M63.7,88.3
			c0,0,0.1,0,0.2,0C63.8,88.3,63.7,88.3,63.7,88.3z M64.4,88.3c0.2,0,0.3,0,0.5,0C64.7,88.4,64.5,88.3,64.4,88.3z M65.3,88.4
			c0.2,0,0.5,0,0.8,0C65.8,88.5,65.5,88.5,65.3,88.4z"/>
		<circle class="st16" cx="67.2" cy="67.2" r="24.3"/>
		<g>
			<path class="st4" d="M66,66.2L66,66.2L66,66.2z"/>
			<path class="st4" d="M75,66.2L75,66.2L75,66.2z"/>
		</g>
		<g>
			<path class="st4" d="M84.9,77.4l-5.8-11.6C79,65.7,79,65.7,79,65.7h-4.9L72,67.9c-0.1,0,4.8-0.1,5.6-0.1c0.1,0,0.1,0.1,0.1,0.1
				l3.6,7.4c0.1,0.1-0.1,0.2-0.1,0.2H68.3h-1.8h-13c-0.1,0-0.1-0.1-0.1-0.2l3.6-7.4c0.1-0.1,0.1-0.1,0.1-0.1c0.8,0,5.7,0.1,5.6,0.1
				l-2.1-2.1h-5c-0.1,0-0.1,0.1-0.1,0.1l-5.6,11.5c-0.1,0.1,0.1,0.2,0.1,0.2h16.4h1.8h16.4C84.9,77.6,85,77.5,84.9,77.4z"/>
			<path class="st6" d="M67.4,50.5c-4.4,0-8,3.6-8,8c0,1.5,0.5,2.9,1.1,4.2c1.1,1.8,2.6,3,3.5,4.2c1.2,1.6,2.6,4.1,2.9,4.7
				c0.1,0.1,0.1,0.1,0.2,0.1c0.1,0.1,0.3-0.1,0.4-0.1c0.4-0.7,1.6-3.2,2.9-4.7c0.9-1.1,2.6-2.3,3.5-4.2c0.9-1.1,1.3-2.6,1.3-4.1
				C75.4,54.1,71.8,50.5,67.4,50.5z M67.4,62.7c-2.3,0-4.2-1.8-4.2-4.2c0-2.3,1.8-4.2,4.2-4.2c2.3,0,4.2,1.8,4.2,4.2
				S69.7,62.7,67.4,62.7z"/>
		</g>
	</g>
</g>
<rect class="st17" width="134.4" height="134.4"/>
</svg>
